<svg width="24" height="24" viewBox="0 0 24 24" fill="none" xmlns="http://www.w3.org/2000/svg">
<g clip-path="url(#clip0_21_361)">
<path d="M9.42859 6.94923C9.42859 6.44066 9.57939 5.9435 9.86196 5.52063C10.1445 5.09775 10.5461 4.76817 11.016 4.57354C11.4858 4.37892 12.0029 4.32801 12.5017 4.42721C13.0005 4.52643 13.4587 4.77134 13.8183 5.13096C14.1779 5.49058 14.4228 5.94876 14.522 6.44758C14.6213 6.94639 14.5703 7.46342 14.3757 7.93329C14.1811 8.40315 13.8515 8.80474 13.4286 9.08731C13.0058 9.36986 12.5086 9.52066 12 9.52066V10.3778" stroke="white" stroke-width="2" stroke-linecap="round" stroke-linejoin="round"/>
<path d="M12 13.9135C11.7633 13.9135 11.5714 13.7216 11.5714 13.4849C11.5714 13.2482 11.7633 13.0564 12 13.0564" stroke="white" stroke-width="2" stroke-linecap="round" stroke-linejoin="round"/>
<path d="M12 13.9135C12.2367 13.9135 12.4286 13.7216 12.4286 13.4849C12.4286 13.2482 12.2367 13.0564 12 13.0564" stroke="white" stroke-width="2" stroke-linecap="round" stroke-linejoin="round"/>
<path d="M21.4286 23.1429H5.14284C4.46086 23.1429 3.80679 22.872 3.32457 22.3898C2.84234 21.9075 2.57141 21.2534 2.57141 20.5714C2.57141 19.8895 2.84234 19.2353 3.32457 18.7531C3.80679 18.2709 4.46086 18 5.14284 18H19.7143C20.1689 18 20.605 17.8193 20.9264 17.4979C21.2479 17.1765 21.4286 16.7404 21.4286 16.2857V2.57143C21.4286 2.11677 21.2479 1.68074 20.9264 1.35925C20.605 1.03776 20.1689 0.857147 19.7143 0.857147H5.14284C4.47257 0.856909 3.8287 1.11839 3.34839 1.5859C2.86807 2.05341 2.58929 2.68998 2.57141 3.36V20.5029" stroke="white" stroke-width="2" stroke-linecap="round" stroke-linejoin="round"/>
<path d="M19.7142 18V23.1429" stroke="white" stroke-width="2" stroke-linecap="round" stroke-linejoin="round"/>
</g>
<defs>
<clipPath id="clip0_21_361">
<rect width="24" height="24" fill="white"/>
</clipPath>
</defs>
</svg>
