<svg width="24" height="24" viewBox="0 0 24 24" fill="none" xmlns="http://www.w3.org/2000/svg">
<g clip-path="url(#clip0_21_369)">
<path d="M5.14294 12V7.49148C5.15633 6.60524 5.34446 5.73037 5.69656 4.91696C6.04864 4.10357 6.55778 3.36764 7.19477 2.75134C7.83177 2.13505 8.58412 1.6505 9.4087 1.32547C10.2333 1.00044 11.1139 0.841304 12.0001 0.857192C12.8863 0.841304 13.7669 1.00044 14.5915 1.32547C15.4161 1.6505 16.1684 2.13505 16.8054 2.75134C17.4424 3.36764 17.9516 4.10357 18.3037 4.91696C18.6556 5.73037 18.8439 6.60524 18.8572 7.49148V12" stroke="white" stroke-width="2" stroke-linecap="round" stroke-linejoin="round"/>
<path d="M2.57146 9.42859H4.28575C4.51308 9.42859 4.7311 9.5189 4.89183 9.67965C5.05258 9.84038 5.14289 10.0584 5.14289 10.2857V15.4286C5.14289 15.6559 5.05258 15.8739 4.89183 16.0347C4.7311 16.1954 4.51308 16.2857 4.28575 16.2857H2.57146C2.1168 16.2857 1.68077 16.1051 1.35928 15.7836C1.03779 15.4621 0.857178 15.0261 0.857178 14.5714V11.1429C0.857178 10.6882 1.03779 10.2522 1.35928 9.93069C1.68077 9.60921 2.1168 9.42859 2.57146 9.42859Z" stroke="white" stroke-width="2" stroke-linecap="round" stroke-linejoin="round"/>
<path d="M21.4286 16.2857H19.7143C19.487 16.2857 19.2689 16.1954 19.1081 16.0347C18.9475 15.8739 18.8572 15.6559 18.8572 15.4286V10.2857C18.8572 10.0584 18.9475 9.84038 19.1081 9.67965C19.2689 9.5189 19.487 9.42859 19.7143 9.42859H21.4286C21.8832 9.42859 22.3193 9.60921 22.6408 9.93069C22.9622 10.2522 23.1429 10.6882 23.1429 11.1429V14.5714C23.1429 15.0261 22.9622 15.4621 22.6408 15.7836C22.3193 16.1051 21.8832 16.2857 21.4286 16.2857Z" stroke="white" stroke-width="2" stroke-linecap="round" stroke-linejoin="round"/>
<path d="M15.4286 21C16.3379 21 17.2099 20.6388 17.8529 19.9958C18.496 19.3528 18.8572 18.4807 18.8572 17.5714V13.7143" stroke="white" stroke-width="2" stroke-linecap="round" stroke-linejoin="round"/>
<path d="M15.4286 21C15.4286 21.5683 15.2028 22.1134 14.8009 22.5153C14.3991 22.9171 13.854 23.1429 13.2857 23.1429H10.7143C10.1459 23.1429 9.60091 22.9171 9.19905 22.5153C8.79718 22.1134 8.57141 21.5683 8.57141 21C8.57141 20.4317 8.79718 19.8866 9.19905 19.4847C9.60091 19.0829 10.1459 18.8571 10.7143 18.8571H13.2857C13.854 18.8571 14.3991 19.0829 14.8009 19.4847C15.2028 19.8866 15.4286 20.4317 15.4286 21Z" stroke="white" stroke-width="2" stroke-linecap="round" stroke-linejoin="round"/>
</g>
<defs>
<clipPath id="clip0_21_369">
<rect width="24" height="24" fill="white"/>
</clipPath>
</defs>
</svg>
