<svg width="24" height="24" viewBox="0 0 24 24" fill="none" xmlns="http://www.w3.org/2000/svg">
<g clip-path="url(#clip0_21_356)">
<path d="M12.0001 13.7143C14.367 13.7143 16.2858 11.7955 16.2858 9.42857C16.2858 7.06164 14.367 5.14285 12.0001 5.14285C9.63314 5.14285 7.71436 7.06164 7.71436 9.42857C7.71436 11.7955 9.63314 13.7143 12.0001 13.7143Z" stroke="white" stroke-width="2" stroke-linecap="round" stroke-linejoin="round"/>
<path d="M4.68005 20.4C5.44504 19.1443 6.52018 18.1065 7.80213 17.3865C9.08407 16.6663 10.5297 16.288 12.0001 16.288C13.4704 16.288 14.916 16.6663 16.198 17.3865C17.48 18.1065 18.555 19.1443 19.3201 20.4" stroke="white" stroke-width="2" stroke-linecap="round" stroke-linejoin="round"/>
<path d="M12 23.1429C18.1541 23.1429 23.1429 18.1541 23.1429 12C23.1429 5.84598 18.1541 0.857147 12 0.857147C5.84601 0.857147 0.857178 5.84598 0.857178 12C0.857178 18.1541 5.84601 23.1429 12 23.1429Z" stroke="white" stroke-width="2" stroke-linecap="round" stroke-linejoin="round"/>
</g>
<defs>
<clipPath id="clip0_21_356">
<rect width="24" height="24" fill="white"/>
</clipPath>
</defs>
</svg>
