<svg width="12" height="12" viewBox="0 0 12 12" fill="none" xmlns="http://www.w3.org/2000/svg">
<g clip-path="url(#clip0_120_221)">
<path d="M4.89429 3.69419C3.24857 2.57133 1.71429 3.42848 0.428574 4.74848L3.27429 6.46276" stroke="white" stroke-linecap="round" stroke-linejoin="round"/>
<path d="M8.30573 7.10574C9.42857 8.75142 8.57142 10.2857 7.25144 11.5714L5.53716 8.72571" stroke="white" stroke-linecap="round" stroke-linejoin="round"/>
<path d="M3.27429 6.45437L5.54572 8.7258C7.36286 7.63722 9.42857 6.58293 10.3714 5.60579C12.4114 3.56579 11.2286 0.771506 11.2286 0.771506C11.2286 0.771506 8.43429 -0.411351 6.39429 1.62864C5.41715 2.5715 4.35429 4.6458 3.27429 6.45437Z" stroke="white" stroke-linecap="round" stroke-linejoin="round"/>
<path d="M4.52574 4.30287L7.69717 7.4743" stroke="white" stroke-linecap="round" stroke-linejoin="round"/>
<path d="M9 3.42857C9.23665 3.42857 9.42857 3.23669 9.42857 3C9.42857 2.76331 9.23665 2.57143 9 2.57143C8.76334 2.57143 8.57143 2.76331 8.57143 3C8.57143 3.23669 8.76334 3.42857 9 3.42857Z" stroke="white" stroke-linecap="round" stroke-linejoin="round"/>
<path d="M3.15429 10.6628C2.65714 11.1428 0.428574 11.5713 0.428574 11.5713C0.428574 11.5713 0.857145 9.34277 1.33714 8.84562C1.45485 8.71937 1.59679 8.61805 1.75451 8.54775C1.91222 8.47748 2.08247 8.4397 2.2551 8.43665C2.42774 8.4336 2.59922 8.46536 2.75932 8.53002C2.9194 8.59465 3.06484 8.69091 3.18693 8.81305C3.30901 8.93511 3.40526 9.08057 3.46993 9.24068C3.53459 9.40071 3.56635 9.57222 3.5633 9.74485C3.56026 9.91748 3.52247 10.0877 3.4522 10.2454C3.38193 10.4031 3.2806 10.5451 3.15429 10.6628Z" stroke="white" stroke-linecap="round" stroke-linejoin="round"/>
</g>
<defs>
<clipPath id="clip0_120_221">
<rect width="12" height="12" fill="white"/>
</clipPath>
</defs>
</svg>
