<svg xmlns="http://www.w3.org/2000/svg" xmlns:xlink="http://www.w3.org/1999/xlink" width="200" zoomAndPan="magnify" viewBox="0 0 150 30.000001" height="40" preserveAspectRatio="xMidYMid meet" version="1.0"><defs><g/><clipPath id="3fee47c836"><path d="M 69.582031 7.453125 L 89.179688 7.453125 L 89.179688 27.046875 L 69.582031 27.046875 Z M 69.582031 7.453125 " clip-rule="nonzero"/></clipPath><clipPath id="b49cad0967"><path d="M 2.949219 7.453125 L 23.441406 7.453125 L 23.441406 27.757812 L 2.949219 27.757812 Z M 2.949219 7.453125 " clip-rule="nonzero"/></clipPath><clipPath id="903b899008"><path d="M 25.234375 7.453125 L 45.726562 7.453125 L 45.726562 27.757812 L 25.234375 27.757812 Z M 25.234375 7.453125 " clip-rule="nonzero"/></clipPath><clipPath id="d586e6f8da"><path d="M 47.765625 7.453125 L 68.257812 7.453125 L 68.257812 27.757812 L 47.765625 27.757812 Z M 47.765625 7.453125 " clip-rule="nonzero"/></clipPath></defs><g clip-path="url(#3fee47c836)"><path fill="#ff3e61" d="M 82.601562 14.644531 C 82.410156 14.644531 82.257812 14.492188 82.257812 14.304688 C 82.257812 14.304688 82.257812 8.488281 82.257812 8.488281 C 82.257812 7.921875 81.796875 7.460938 81.230469 7.460938 L 77.804688 7.460938 C 77.238281 7.460938 76.777344 7.921875 76.777344 8.488281 L 76.777344 14.304688 C 76.777344 14.492188 76.625 14.644531 76.433594 14.644531 C 76.433594 14.644531 70.617188 14.644531 70.617188 14.644531 C 70.050781 14.644531 69.589844 15.105469 69.589844 15.671875 L 69.589844 19.097656 C 69.589844 19.667969 70.050781 20.125 70.617188 20.125 L 76.433594 20.125 C 76.625 20.125 76.777344 20.28125 76.777344 20.46875 C 76.777344 20.46875 76.777344 26.285156 76.777344 26.285156 C 76.777344 26.851562 77.238281 27.3125 77.804688 27.3125 L 81.230469 27.3125 C 81.796875 27.3125 82.257812 26.851562 82.257812 26.285156 L 82.257812 20.46875 C 82.257812 20.28125 82.410156 20.125 82.601562 20.125 C 82.601562 20.125 88.414062 20.125 88.414062 20.125 C 88.984375 20.125 89.445312 19.667969 89.445312 19.097656 L 89.445312 15.671875 C 89.445312 15.105469 88.984375 14.644531 88.414062 14.644531 Z M 82.601562 14.644531 " fill-opacity="1" fill-rule="evenodd"/></g><g clip-path="url(#b49cad0967)"><path fill="#ffffff" d="M 2.949219 7.453125 L 23.414062 7.453125 L 23.414062 27.757812 L 2.949219 27.757812 Z M 2.949219 7.453125 " fill-opacity="1" fill-rule="nonzero"/></g><g clip-path="url(#903b899008)"><path fill="#ffffff" d="M 25.234375 7.453125 L 45.699219 7.453125 L 45.699219 27.757812 L 25.234375 27.757812 Z M 25.234375 7.453125 " fill-opacity="1" fill-rule="nonzero"/></g><g clip-path="url(#d586e6f8da)"><path fill="#ffffff" d="M 47.765625 7.453125 L 68.230469 7.453125 L 68.230469 27.757812 L 47.765625 27.757812 Z M 47.765625 7.453125 " fill-opacity="1" fill-rule="nonzero"/></g><g fill="#ffffff" fill-opacity="1"><g transform="translate(90.473186, 20.220831)"><g><path d="M 5.65625 -11.625 C 6.0625 -12.257812 6.617188 -12.769531 7.328125 -13.15625 C 8.046875 -13.550781 8.878906 -13.75 9.828125 -13.75 C 10.953125 -13.75 11.96875 -13.460938 12.875 -12.890625 C 13.78125 -12.328125 14.492188 -11.519531 15.015625 -10.46875 C 15.546875 -9.414062 15.8125 -8.191406 15.8125 -6.796875 C 15.8125 -5.398438 15.546875 -4.171875 15.015625 -3.109375 C 14.492188 -2.054688 13.78125 -1.242188 12.875 -0.671875 C 11.96875 -0.0976562 10.953125 0.1875 9.828125 0.1875 C 8.890625 0.1875 8.0625 -0.00390625 7.34375 -0.390625 C 6.625 -0.773438 6.0625 -1.273438 5.65625 -1.890625 L 5.65625 6.453125 L 1.5 6.453125 L 1.5 -13.546875 L 5.65625 -13.546875 Z M 11.578125 -6.796875 C 11.578125 -7.835938 11.289062 -8.648438 10.71875 -9.234375 C 10.144531 -9.828125 9.4375 -10.125 8.59375 -10.125 C 7.769531 -10.125 7.070312 -9.820312 6.5 -9.21875 C 5.925781 -8.625 5.640625 -7.8125 5.640625 -6.78125 C 5.640625 -5.738281 5.925781 -4.914062 6.5 -4.3125 C 7.070312 -3.71875 7.769531 -3.421875 8.59375 -3.421875 C 9.414062 -3.421875 10.117188 -3.722656 10.703125 -4.328125 C 11.285156 -4.941406 11.578125 -5.765625 11.578125 -6.796875 Z M 11.578125 -6.796875 "/></g></g></g><g fill="#ffffff" fill-opacity="1"><g transform="translate(106.957516, 20.220831)"><g><path d="M 5.65625 -17.96875 L 5.65625 0 L 1.5 0 L 1.5 -17.96875 Z M 5.65625 -17.96875 "/></g></g></g><g fill="#ffffff" fill-opacity="1"><g transform="translate(114.119338, 20.220831)"><g><path d="M 0.6875 -6.796875 C 0.6875 -8.191406 0.945312 -9.414062 1.46875 -10.46875 C 2 -11.519531 2.71875 -12.328125 3.625 -12.890625 C 4.53125 -13.460938 5.539062 -13.75 6.65625 -13.75 C 7.601562 -13.75 8.4375 -13.550781 9.15625 -13.15625 C 9.882812 -12.769531 10.441406 -12.257812 10.828125 -11.625 L 10.828125 -13.546875 L 14.984375 -13.546875 L 14.984375 0 L 10.828125 0 L 10.828125 -1.921875 C 10.421875 -1.285156 9.859375 -0.773438 9.140625 -0.390625 C 8.421875 -0.00390625 7.582031 0.1875 6.625 0.1875 C 5.53125 0.1875 4.53125 -0.0976562 3.625 -0.671875 C 2.71875 -1.242188 2 -2.054688 1.46875 -3.109375 C 0.945312 -4.171875 0.6875 -5.398438 0.6875 -6.796875 Z M 10.828125 -6.78125 C 10.828125 -7.8125 10.539062 -8.625 9.96875 -9.21875 C 9.394531 -9.820312 8.691406 -10.125 7.859375 -10.125 C 7.035156 -10.125 6.335938 -9.828125 5.765625 -9.234375 C 5.191406 -8.648438 4.90625 -7.835938 4.90625 -6.796875 C 4.90625 -5.765625 5.191406 -4.941406 5.765625 -4.328125 C 6.335938 -3.722656 7.035156 -3.421875 7.859375 -3.421875 C 8.691406 -3.421875 9.394531 -3.71875 9.96875 -4.3125 C 10.539062 -4.914062 10.828125 -5.738281 10.828125 -6.78125 Z M 10.828125 -6.78125 "/></g></g></g><g fill="#ffffff" fill-opacity="1"><g transform="translate(130.603668, 20.220831)"><g><path d="M 15.34375 -13.546875 L 6.84375 6.4375 L 2.375 6.4375 L 5.484375 -0.46875 L -0.03125 -13.546875 L 4.609375 -13.546875 L 7.75 -5.078125 L 10.859375 -13.546875 Z M 15.34375 -13.546875 "/></g></g></g><g fill="#ffffff" fill-opacity="1"><g transform="translate(145.948474, 20.220831)"><g/></g></g><g fill="#000000" fill-opacity="1"><g transform="translate(5.900038, 22.239841)"><g><path d="M 1.484375 -7.359375 L 1.453125 -12.453125 L 4.65625 -12.453125 L 4.65625 -7.703125 C 4.65625 -6.109375 4.65625 -4.898438 4.65625 -4.078125 C 4.664062 -3.253906 4.675781 -2.8125 4.6875 -2.75 C 4.800781 -2.144531 5.191406 -1.757812 5.859375 -1.59375 C 6.390625 -1.519531 6.921875 -1.484375 7.453125 -1.484375 C 7.828125 -1.484375 8.160156 -1.503906 8.453125 -1.546875 C 8.753906 -1.585938 9.019531 -1.671875 9.25 -1.796875 C 9.476562 -1.929688 9.660156 -2.125 9.796875 -2.375 C 9.929688 -2.625 10.019531 -2.941406 10.0625 -3.328125 C 10.070312 -3.484375 10.078125 -3.847656 10.078125 -4.421875 C 10.085938 -5.003906 10.09375 -5.800781 10.09375 -6.8125 C 10.09375 -7.757812 10.09375 -8.59375 10.09375 -9.3125 C 10.09375 -10.039062 10.097656 -10.660156 10.109375 -11.171875 L 10.140625 -12.453125 L 13.359375 -12.453125 L 13.34375 -7.78125 C 13.332031 -4.539062 13.296875 -2.691406 13.234375 -2.234375 C 13.140625 -1.398438 12.9375 -0.703125 12.625 -0.140625 C 12.320312 0.410156 11.925781 0.847656 11.4375 1.171875 C 10.957031 1.503906 10.382812 1.738281 9.71875 1.875 C 9.0625 2.007812 8.335938 2.078125 7.546875 2.078125 C 6.710938 2.078125 5.9375 2.007812 5.21875 1.875 C 4.5 1.75 3.867188 1.515625 3.328125 1.171875 C 2.796875 0.828125 2.367188 0.363281 2.046875 -0.21875 C 1.734375 -0.800781 1.554688 -1.539062 1.515625 -2.4375 C 1.503906 -2.664062 1.492188 -3.1875 1.484375 -4 C 1.484375 -4.820312 1.484375 -5.941406 1.484375 -7.359375 Z M 1.484375 -7.359375 "/></g></g></g><g fill="#000000" fill-opacity="1"><g transform="translate(29.097134, 23.075609)"><g><path d="M 0.578125 -12.390625 L 12.375 -12.390625 L 12.375 -9.71875 L 8.15625 -9.71875 L 8.15625 -3.96875 L 8.125 1.984375 L 4.9375 1.984375 L 4.90625 -9.703125 L 2.75 -9.71875 L 0.578125 -9.71875 Z M 0.578125 -12.390625 "/></g></g></g><g fill="#000000" fill-opacity="1"><g transform="translate(51.428518, 22.239841)"><g><path d="M 7.640625 -9.796875 C 7.453125 -9.816406 7.203125 -9.828125 6.890625 -9.828125 C 6.585938 -9.835938 6.222656 -9.84375 5.796875 -9.84375 L 4.578125 -9.84375 L 4.578125 -6.140625 L 5.5 -6.125 C 6.238281 -6.101562 6.828125 -6.109375 7.265625 -6.140625 C 7.703125 -6.171875 8 -6.207031 8.15625 -6.25 C 8.84375 -6.4375 9.238281 -6.835938 9.34375 -7.453125 C 9.394531 -7.617188 9.410156 -7.90625 9.390625 -8.3125 C 9.378906 -8.519531 9.359375 -8.691406 9.328125 -8.828125 C 9.304688 -8.960938 9.285156 -9.0625 9.265625 -9.125 C 9.191406 -9.25 9.113281 -9.347656 9.03125 -9.421875 C 8.957031 -9.503906 8.859375 -9.570312 8.734375 -9.625 C 8.617188 -9.675781 8.472656 -9.710938 8.296875 -9.734375 C 8.117188 -9.765625 7.898438 -9.785156 7.640625 -9.796875 Z M 1.5625 -6.5625 L 1.5625 -12.453125 L 4.625 -12.4375 C 7.375 -12.414062 8.972656 -12.351562 9.421875 -12.25 C 11.097656 -11.90625 12.085938 -10.9375 12.390625 -9.34375 C 12.429688 -9.132812 12.453125 -8.765625 12.453125 -8.234375 C 12.453125 -7.867188 12.441406 -7.515625 12.421875 -7.171875 C 12.410156 -6.828125 12.363281 -6.492188 12.28125 -6.171875 C 12.207031 -5.859375 12.09375 -5.550781 11.9375 -5.25 C 11.78125 -4.957031 11.5625 -4.664062 11.28125 -4.375 C 10.90625 -4 10.460938 -3.71875 9.953125 -3.53125 C 9.441406 -3.34375 8.929688 -3.21875 8.421875 -3.15625 C 8.222656 -3.125 7.945312 -3.101562 7.59375 -3.09375 C 7.238281 -3.09375 6.816406 -3.085938 6.328125 -3.078125 L 4.703125 -3.046875 L 4.703125 -1.34375 C 4.703125 -0.644531 4.695312 -0.078125 4.6875 0.359375 C 4.6875 0.804688 4.679688 1.132812 4.671875 1.34375 L 4.65625 1.984375 L 3.125 1.96875 L 1.609375 1.96875 L 1.59375 0.65625 C 1.582031 0.238281 1.570312 -0.566406 1.5625 -1.765625 C 1.5625 -2.960938 1.5625 -4.5625 1.5625 -6.5625 Z M 1.5625 -6.5625 "/></g></g></g></svg>